<svg width="20" height="20" viewBox="0 0 20 20" fill="none" xmlns="http://www.w3.org/2000/svg">
<g opacity="0.69">
<path fill-rule="evenodd" clip-rule="evenodd" d="M18.1159 9.04471V5.19614C18.1159 4.85543 17.9805 4.528 17.7396 4.28714C17.4983 4.04586 17.1713 3.91043 16.8302 3.91043H15.8492V2.28571C15.8492 1.94457 15.7137 1.61757 15.4725 1.37671C15.2316 1.13543 14.9046 1 14.5635 1C12.2599 1 5.95346 1 3.64989 1C3.30875 1 2.98175 1.13543 2.74046 1.37671C2.4996 1.61757 2.36418 1.94457 2.36418 2.28571V4.92186C1.81132 5.06586 1.40332 5.56857 1.40332 6.16643V17.7143C1.40332 18.4244 1.97889 19 2.68903 19C5.51032 19 14.4893 19 17.311 19C17.6517 19 17.9787 18.8646 18.22 18.6233C18.4613 18.3824 18.5967 18.0554 18.5967 17.7143V10.0471C18.5967 9.706 18.4613 9.379 18.22 9.13814C18.187 9.10471 18.1523 9.07386 18.1159 9.04471ZM7.79931 9.61857H17.311C17.4246 9.61857 17.5335 9.66357 17.614 9.74414C17.6942 9.82429 17.7396 9.93357 17.7396 10.0471V17.7143C17.7396 17.8279 17.6942 17.9367 17.614 18.0173C17.5335 18.0979 17.4246 18.1429 17.311 18.1429C14.4893 18.1429 5.51032 18.1429 2.68903 18.1429C2.45203 18.1429 2.26046 17.9509 2.26046 17.7143V6.16643C2.26046 5.92985 2.45203 5.73785 2.68903 5.73785H6.09875C6.21317 5.73785 6.32246 5.78328 6.40303 5.86428C6.48317 5.94528 6.52817 6.055 6.52732 6.169L6.5136 8.32472C6.51146 8.66714 6.64603 8.99628 6.88732 9.23928C7.1286 9.48185 7.45688 9.61857 7.79931 9.61857ZM14.992 8.76143V2.28571C14.992 2.17214 14.947 2.06286 14.8665 1.98271C14.7863 1.90214 14.677 1.85714 14.5635 1.85714H3.64989C3.53632 1.85714 3.42704 1.90214 3.34689 1.98271C3.26632 2.06286 3.22132 2.17214 3.22132 2.28571V4.88071H12.8826C13.1192 4.88071 13.3112 5.07271 13.3112 5.30928C13.3112 5.54585 13.1192 5.73785 12.8826 5.73785H7.31118C7.36004 5.87671 7.38532 6.02457 7.38446 6.17457L7.3806 6.82086H12.8826C13.1192 6.82086 13.3112 7.01329 13.3112 7.24943C13.3112 7.486 13.1192 7.678 12.8826 7.678H7.37503L7.37074 8.33029C7.37031 8.44429 7.41489 8.554 7.49546 8.635C7.57603 8.716 7.68531 8.76143 7.79931 8.76143H14.992ZM15.8492 4.76757V8.76143H17.2587V5.19614C17.2587 5.08257 17.2137 4.97371 17.1336 4.89314C17.053 4.813 16.9442 4.76757 16.8302 4.76757H15.8492Z" fill="#E6F4FA" stroke="#E6F4FA" stroke-width="0.9"/>
</g>
<path d="M7.4035 3.57144H14.6443V8.66681L7.4035 8.7143V3.57144Z" fill="#002850"/>
</svg>
