<svg width="24" height="24" viewBox="0 0 24 24" fill="none" xmlns="http://www.w3.org/2000/svg">
<path d="M4 4.00003V3.10003H3.1V4.00003H4ZM20 4.00003H20.9V3.10003H20V4.00003ZM4 7.00003H3.1V7.37282L3.3636 7.63643L4 7.00003ZM9.00002 12.0001H9.90002V11.6273L9.63642 11.3637L9.00002 12.0001ZM9.00002 20H8.10002V21.2487L9.28463 20.8538L9.00002 20ZM15 18L15.2846 18.8538L15.9 18.6487V18H15ZM15 12L14.3636 11.3636L14.1 11.6272V12H15ZM20 7.00003L20.6364 7.63643L20.9 7.37282V7.00003H20ZM4 4.90003H20V3.10003H4V4.90003ZM4.9 7.00003V4.00003H3.1V7.00003H4.9ZM9.63642 11.3637L4.6364 6.36363L3.3636 7.63643L8.36363 12.6365L9.63642 11.3637ZM8.10002 12.0001V20H9.90002V12.0001H8.10002ZM9.28463 20.8538L15.2846 18.8538L14.7154 17.1462L8.71542 19.1462L9.28463 20.8538ZM15.9 18V12H14.1V18H15.9ZM19.3636 6.36363L14.3636 11.3636L15.6364 12.6364L20.6364 7.63643L19.3636 6.36363ZM19.1 4.00003V7.00003H20.9V4.00003H19.1Z" fill="#256EB5"/>
</svg>
