<svg width="24" height="24" viewBox="0 0 24 24" fill="none" xmlns="http://www.w3.org/2000/svg">
<path opacity="0.69" fill-rule="evenodd" clip-rule="evenodd" d="M21.9503 12.9992H11.0003V2.04921C11.3293 2.01621 11.6633 1.99921 12.0003 1.99921C17.5233 1.99921 22.0003 6.47621 22.0003 11.9992C22.0003 12.3362 21.9833 12.6702 21.9503 12.9992ZM12.0004 21.999C6.47737 21.999 2.00037 17.522 2.00037 11.999C2.00037 7.52102 4.94337 3.73102 9.00037 2.45702V4.58102C5.45503 6.02063 3.42478 9.76853 4.15562 13.5246C4.88646 17.2806 8.17389 19.9938 12.0004 19.999C15.2607 19.9989 18.195 18.0211 19.4184 14.999H21.5424C20.2684 19.056 16.4784 21.999 12.0004 21.999ZM13.0001 10.9985V4.06053C16.6253 4.51839 19.4802 7.3733 19.9381 10.9985H13.0001Z" fill="#E6F4FA"/>
</svg>
