<svg width="24" height="24" viewBox="0 0 24 24" fill="none" xmlns="http://www.w3.org/2000/svg">
<g opacity="0.8">
<path fill-rule="evenodd" clip-rule="evenodd" d="M6 19H2C2 18.5 2 18.5523 2 18V8C2 7.44772 2 7.5 2 7H6V3C6 2.44772 6 2.5 6 2H18C18 2 18 2.44772 18 3V7H21C21.5523 7 21.5 7 22 7V18C22 18.5523 22 18.5 22 19H18V22C17 22 17.5523 22 17 22H7C6.44772 22 7 22 6 22V19ZM6 17V16C6 15.4477 6 15.5 6 15H17C17.5523 15 17.5 15 18 15V17H20V9H4V17H6ZM8 7V4H16V7H8ZM8 17V20H16V17H8ZM8 10H5V12H8V10Z" fill="#256EB5"/>
</g>
</svg>
