<svg width="25" height="25" viewBox="0 0 25 25" fill="none" xmlns="http://www.w3.org/2000/svg">
<path fill-rule="evenodd" clip-rule="evenodd" d="M2.43884 12.5C2.43884 18.023 6.91584 22.5 12.4388 22.5C17.9618 22.5 22.4388 18.023 22.4388 12.5C22.4388 6.977 17.9618 2.5 12.4388 2.5C6.91584 2.5 2.43884 6.977 2.43884 12.5ZM20.4388 12.5C20.4388 16.9183 16.8571 20.5 12.4388 20.5C8.02056 20.5 4.43884 16.9183 4.43884 12.5C4.43884 8.08172 8.02056 4.5 12.4388 4.5C16.8571 4.5 20.4388 8.08172 20.4388 12.5ZM13.4388 15.5V17.5H11.4388V15.5H13.4388ZM13.4388 14.5V13.855C15.0825 13.3651 16.1292 11.7566 15.9115 10.0554C15.6937 8.3542 14.2757 7.06119 12.5616 7.00102C10.8476 6.94085 9.34233 8.13124 9.00584 9.813L10.9678 10.206C11.1227 9.43117 11.8521 8.90935 12.6354 9.01295C13.4188 9.11655 13.9874 9.81006 13.9355 10.5985C13.8836 11.387 13.229 12 12.4388 12C11.8866 12 11.4388 12.4477 11.4388 13V14.5H13.4388Z" fill="#256EB5"/>
</svg>
