<svg width="25" height="25" viewBox="0 0 25 25" fill="none" xmlns="http://www.w3.org/2000/svg">
<path fill-rule="evenodd" clip-rule="evenodd" d="M22.7528 21.399L18.4698 17.117C19.7471 15.5237 20.4417 13.542 20.4388 11.5C20.4388 6.532 16.4068 2.5 11.4388 2.5C6.47084 2.5 2.43884 6.532 2.43884 11.5C2.43884 16.468 6.47084 20.5 11.4388 20.5C13.4808 20.5029 15.4626 19.8082 17.0558 18.531L21.3378 22.814L22.7528 21.399ZM18.4388 11.5C18.4417 13.3204 17.733 15.0699 16.4638 16.375L16.3138 16.525C15.0087 17.7941 13.2593 18.5029 11.4388 18.5C7.57084 18.5 4.43884 15.367 4.43884 11.5C4.43884 7.632 7.57084 4.5 11.4388 4.5C15.3058 4.5 18.4388 7.632 18.4388 11.5Z" fill="#256EB5"/>
</svg>
